<?xml version="1.0" standalone="no"?>
<!DOCTYPE svg PUBLIC "-//W3C//DTD SVG 20010904//EN"
 "http://www.w3.org/TR/2001/REC-SVG-20010904/DTD/svg10.dtd">
<svg version="1.0" xmlns="http://www.w3.org/2000/svg"
 width="799.000000pt" height="799.000000pt" viewBox="0 0 799.000000 799.000000"
 preserveAspectRatio="xMidYMid meet">
<metadata>
Created by potrace 1.11, written by Peter Selinger 2001-2013
</metadata>
<g transform="translate(0.000000,799.000000) scale(0.100000,-0.100000)"
fill="#000000" stroke="none">
<path d="M3957 6340 c-34 -27 -41 -52 -27 -94 19 -58 89 -72 136 -27 33 32 32
80 -2 115 -32 31 -71 34 -107 6z"/>
<path d="M3657 6319 c-9 -5 -24 -23 -32 -39 -27 -52 17 -120 78 -120 23 0 76
39 78 57 0 4 2 19 3 33 6 54 -76 99 -127 69z"/>
<path d="M4273 6320 c-78 -31 -61 -152 22 -160 35 -4 44 -1 70 25 31 32 33 76
3 108 -26 29 -63 39 -95 27z"/>
<path d="M3375 6271 c-30 -13 -47 -36 -52 -76 -4 -27 1 -40 21 -60 75 -75 194
30 124 109 -26 29 -63 39 -93 27z"/>
<path d="M4574 6265 c-90 -38 -72 -156 24 -158 44 -1 62 13 82 61 7 17 6 31
-4 51 -26 50 -58 65 -102 46z"/>
<path d="M3084 6168 c-65 -31 -46 -137 26 -153 80 -18 134 82 75 140 -26 26
-64 31 -101 13z"/>
<path d="M4834 6165 c-28 -12 -52 -47 -48 -72 1 -7 2 -19 3 -26 2 -26 27 -48
65 -57 33 -7 41 -5 67 18 39 35 42 83 8 118 -31 30 -56 36 -95 19z"/>
<path d="M3859 6086 c-2 -2 -35 -6 -74 -10 -191 -17 -385 -64 -564 -135 -61
-25 -203 -92 -211 -101 -3 -3 -21 -13 -40 -24 -68 -37 -130 -78 -130 -88 0 -5
-4 -7 -8 -4 -7 4 -60 -33 -165 -117 -51 -40 -132 -121 -130 -129 2 -4 -1 -7
-6 -5 -9 2 -92 -82 -126 -129 -11 -15 -25 -32 -31 -38 -33 -35 -102 -141 -97
-150 3 -6 3 -8 -2 -4 -16 15 -203 -332 -190 -352 3 -5 2 -10 -2 -10 -7 0 -43
-82 -48 -110 -1 -3 -10 -32 -20 -65 -11 -33 -19 -62 -20 -65 -1 -3 -5 -24 -9
-47 l-8 -43 -59 0 c-46 0 -57 3 -53 14 3 8 12 17 19 20 18 7 29 69 17 92 -15
27 -63 52 -92 48 -34 -5 -70 -49 -70 -83 0 -16 9 -40 20 -54 11 -14 20 -28 20
-31 0 -3 -178 -6 -396 -6 l-395 0 6 -37 c3 -21 8 -54 11 -73 2 -19 9 -57 14
-85 10 -49 15 -85 25 -157 2 -20 11 -77 19 -125 8 -48 18 -108 21 -133 3 -25
8 -52 10 -60 2 -8 6 -35 9 -60 3 -25 8 -56 11 -70 4 -21 10 -61 20 -125 2 -11
10 -66 19 -122 9 -57 16 -107 16 -113 0 -7 155 -10 450 -10 l450 0 9 -22 c5
-13 9 -26 10 -30 2 -9 106 -212 124 -243 181 -308 436 -565 732 -737 164 -96
355 -174 545 -223 69 -18 70 -18 170 -35 177 -30 497 -33 615 -7 11 3 41 8 67
11 86 12 333 80 352 97 6 5 16 9 24 9 7 0 37 11 65 24 29 13 75 33 102 46 164
74 478 291 467 323 -1 5 1 6 6 3 11 -7 166 152 244 249 102 127 204 298 274
455 l33 75 473 5 c305 3 473 9 473 15 1 9 4 29 20 135 2 14 22 139 44 279 23
139 39 257 36 261 -3 5 -1 11 3 14 5 3 9 18 10 33 1 15 4 39 7 53 3 14 8 41
10 60 3 19 8 51 11 70 3 19 8 49 10 65 2 17 10 65 17 108 l13 77 -418 0 -419
0 20 28 c47 65 17 134 -59 136 -33 0 -45 -5 -65 -28 -28 -32 -31 -41 -12 -30
9 6 9 4 -1 -8 -13 -17 -3 -60 17 -73 25 -15 7 -25 -44 -25 l-54 0 -12 42 c-6
24 -13 52 -15 63 -16 83 -91 276 -157 405 -49 95 -160 271 -189 300 -8 9 -20
26 -27 39 -7 12 -15 20 -18 17 -3 -3 -13 8 -22 24 -25 46 -190 210 -281 280
-25 19 -47 37 -50 40 -14 15 -194 132 -255 167 -126 71 -405 180 -426 167 -5
-3 -9 -1 -9 4 0 9 -27 16 -95 28 -11 2 -38 8 -60 13 -22 5 -62 13 -90 16 -27
4 -61 9 -75 11 -29 6 -356 14 -361 10z m316 -100 c33 -2 60 -5 60 -6 0 -1 14
-3 30 -5 17 -2 48 -7 70 -10 22 -4 47 -7 55 -9 8 -1 20 -4 25 -8 6 -3 30 -9
55 -13 25 -4 66 -16 93 -26 26 -10 47 -17 47 -14 0 2 20 -4 45 -15 25 -11 48
-19 50 -19 10 1 218 -99 259 -124 63 -39 182 -121 184 -128 2 -5 10 -9 18 -9
8 0 14 -4 14 -10 0 -5 5 -10 11 -10 7 0 22 -12 35 -27 13 -16 24 -25 24 -21 0
7 204 -195 235 -233 11 -13 40 -51 64 -84 25 -33 52 -66 60 -72 8 -7 11 -13 7
-13 -4 0 1 -13 10 -29 10 -17 22 -27 27 -24 6 3 7 2 4 -4 -4 -5 3 -20 14 -31
10 -12 19 -23 18 -24 -5 -8 14 -48 22 -48 6 0 7 -4 4 -10 -3 -5 -1 -10 4 -10
6 0 10 -3 9 -7 -2 -12 31 -81 42 -88 6 -4 8 -10 5 -15 -3 -5 2 -21 11 -35 9
-14 12 -25 8 -25 -5 0 -4 -4 1 -8 11 -7 72 -180 79 -222 3 -14 5 -25 6 -25 1
0 3 -7 5 -15 1 -8 4 -22 6 -30 4 -13 -34 -15 -288 -18 l-293 -2 0 192 0 193
-128 66 -128 67 2 -62 c1 -33 2 -66 3 -71 0 -6 13 -16 29 -22 15 -7 42 -22 60
-33 l32 -20 0 -155 0 -155 -30 0 c-17 0 -31 6 -31 13 -1 6 -2 71 -3 142 l-1
130 -116 69 c-94 56 -116 74 -116 92 0 25 1 25 83 -18 l50 -26 0 139 c0 76 -2
139 -4 139 -2 0 -56 -28 -120 -62 -64 -35 -120 -64 -124 -66 -4 -2 -8 33 -8
78 0 74 -2 81 -17 75 -10 -4 -67 -24 -127 -45 -89 -31 -114 -36 -135 -28 -14
5 -60 23 -101 38 -41 16 -83 31 -93 35 -16 7 -18 3 -15 -21 3 -26 12 -32 118
-74 75 -30 116 -52 118 -63 4 -17 -12 -13 -176 52 -29 12 -55 21 -57 21 -3 0
-5 -19 -5 -42 l0 -43 116 -44 c102 -39 137 -61 122 -76 -3 -3 -56 15 -118 40
-64 25 -116 41 -120 36 -5 -9 -52 2 -147 36 l-43 16 0 138 c0 77 -2 139 -4
139 -2 0 -61 20 -130 45 l-126 44 -127 -45 c-70 -25 -130 -50 -134 -55 -3 -5
-5 -46 -4 -90 1 -56 -2 -79 -10 -75 -6 2 -38 11 -71 21 -49 13 -65 14 -89 4
-17 -7 -34 -13 -40 -15 -5 -1 -47 -16 -92 -32 -46 -17 -83 -26 -83 -22 0 7
-175 -50 -200 -65 -8 -5 -73 16 -167 54 l-53 21 0 -24 c0 -20 13 -28 100 -62
55 -21 102 -45 105 -51 7 -19 -7 -16 -105 22 -49 19 -92 35 -95 35 -3 0 -5
-15 -5 -34 0 -32 2 -34 88 -68 48 -20 95 -38 105 -42 9 -3 17 -11 17 -17 0
-14 -45 -6 -98 17 -89 38 -103 44 -107 44 -3 0 -5 -18 -5 -40 0 -22 5 -40 11
-40 6 0 25 -6 42 -14 18 -7 58 -24 89 -36 31 -12 59 -28 62 -36 8 -20 0 -18
-107 25 l-97 40 0 -39 0 -38 98 -38 c89 -36 111 -48 112 -65 0 -4 -45 11 -100
32 -56 21 -103 39 -106 39 -3 0 -4 -17 -2 -37 3 -36 5 -38 70 -63 37 -15 71
-29 74 -33 4 -4 15 -7 25 -7 10 0 23 -9 29 -20 10 -18 9 -19 -32 -6 -24 8 -71
25 -105 39 l-63 26 0 -39 c0 -37 2 -40 40 -51 22 -7 40 -16 40 -21 0 -11 -37
-10 -61 2 -13 7 -19 7 -19 0 0 -7 -111 -10 -336 -10 l-336 0 7 28 c4 15 9 38
11 51 3 14 7 28 10 33 3 4 7 18 10 30 8 36 10 41 39 118 26 68 28 75 27 83 -1
4 2 7 8 7 6 0 9 3 8 8 -1 4 12 37 30 74 18 37 32 71 32 74 -1 4 2 10 7 13 17
11 53 78 46 84 -3 4 -1 7 5 7 6 0 26 26 46 58 19 31 44 67 56 80 11 12 18 22
15 22 -3 0 13 19 34 42 22 23 37 46 34 51 -3 6 -1 7 5 3 7 -4 12 -1 12 9 0 9
5 13 11 10 6 -4 13 1 16 11 3 11 38 49 78 86 40 37 70 70 66 73 -3 4 -1 5 4 3
13 -4 66 37 58 46 -3 3 0 6 8 6 9 0 24 8 35 18 21 19 48 38 109 79 22 14 43
31 47 37 5 6 8 7 8 1 0 -5 7 -1 15 9 8 11 15 16 15 12 0 -4 14 2 30 14 17 12
30 18 30 13 0 -4 4 -3 8 3 6 9 155 85 167 85 2 0 29 11 60 24 30 14 58 25 63
25 15 1 57 13 67 19 6 3 15 6 20 7 6 1 30 7 55 14 25 7 54 14 65 16 11 2 43 8
70 14 59 12 97 17 185 26 36 3 66 7 67 8 3 3 237 -3 298 -8z m1601 -2733 c-16
-45 -49 -116 -57 -123 -13 -12 -68 -118 -63 -124 2 -3 1 -4 -2 -2 -4 3 -28
-28 -54 -68 -47 -72 -143 -191 -187 -232 -13 -12 -20 -24 -16 -27 3 -4 1 -7
-6 -7 -17 0 -42 -26 -33 -35 4 -4 2 -5 -3 -3 -6 2 -23 -9 -39 -24 -68 -64 -86
-79 -166 -137 -47 -34 -89 -65 -95 -69 -5 -4 -30 -19 -55 -32 -25 -14 -46 -28
-48 -32 -2 -5 -10 -8 -18 -8 -8 0 -14 -5 -14 -12 0 -6 -2 -9 -6 -6 -3 3 -44
-13 -92 -37 -48 -23 -118 -54 -157 -68 l-70 -25 3 78 c5 106 -10 133 -82 156
-34 11 -56 24 -59 35 -3 10 9 45 25 78 16 33 26 66 22 72 -4 7 -8 27 -10 46
-6 69 -69 124 -134 116 -74 -9 -115 -50 -124 -126 -2 -20 -7 -40 -10 -45 -3
-5 8 -34 25 -66 37 -70 32 -90 -26 -106 -24 -7 -54 -23 -67 -37 -20 -21 -23
-34 -23 -111 l0 -86 70 -28 c39 -15 75 -29 80 -31 47 -19 -130 -40 -320 -38
-66 1 -129 3 -140 6 -11 2 -24 4 -30 5 -5 1 37 18 94 39 58 21 108 45 113 55
6 10 8 51 6 91 -4 87 -22 113 -92 134 -58 17 -65 38 -31 97 22 37 26 53 22 99
-10 120 -101 180 -196 130 -39 -20 -59 -50 -66 -100 -3 -22 -8 -46 -10 -53 -3
-7 9 -38 25 -68 32 -61 29 -87 -12 -99 -52 -16 -86 -37 -97 -61 -15 -34 -14
-169 2 -181 6 -6 42 -21 80 -34 71 -25 89 -44 35 -35 -131 21 -280 62 -373
101 -16 7 -41 16 -55 20 -14 4 -38 15 -55 23 -16 9 -32 16 -35 17 -15 1 -177
96 -255 149 -49 33 -94 59 -98 58 -5 -1 -6 2 -3 7 6 9 -22 26 -37 22 -5 -1 -6
3 -2 9 3 5 2 10 -3 10 -10 0 -234 219 -262 255 -48 63 -58 74 -64 70 -3 -3 -4
-2 -2 1 4 5 -78 136 -112 179 -14 18 -122 235 -122 245 0 7 626 10 1800 10
l1799 0 -13 -37z"/>
<path d="M5108 5327 l-127 -72 -1 -37 c0 -27 4 -38 14 -38 8 0 17 4 20 9 3 5
14 11 24 13 16 5 18 -2 17 -78 -1 -46 1 -88 4 -93 3 -5 29 -21 56 -36 28 -15
65 -36 83 -47 17 -11 33 -18 33 -16 1 2 5 469 4 467 0 0 -57 -33 -127 -72z"/>
<path d="M4400 5260 c-58 -22 -109 -42 -115 -44 -5 -2 -3 -6 5 -9 8 -3 61 -22
116 -42 l102 -37 108 37 c60 21 115 40 122 44 9 5 -84 41 -227 88 -3 1 -53
-16 -111 -37z"/>
<path d="M2852 5142 c-51 -19 -91 -37 -89 -39 2 -1 46 -18 99 -36 l95 -33 94
33 c52 18 98 34 103 36 9 3 -140 58 -189 70 -11 2 -62 -11 -113 -31z"/>
<path d="M4013 3195 c-43 -18 -69 -63 -77 -131 -5 -46 -3 -60 14 -84 23 -32
34 -80 23 -95 -5 -6 -27 -17 -50 -23 -68 -20 -110 -82 -65 -96 26 -9 72 -85
72 -121 0 -43 16 -59 82 -80 55 -18 60 -18 112 -2 68 22 86 39 86 83 0 49 47
124 77 124 21 0 15 35 -10 58 -13 12 -45 29 -71 38 -47 16 -48 17 -41 51 3 19
15 49 26 66 15 25 18 42 13 82 -15 117 -96 172 -191 130z"/>
<path d="M2830 6046 c-19 -6 -33 -15 -32 -20 2 -5 -1 -12 -8 -16 -16 -10 -24
-70 -10 -70 6 0 9 -4 6 -9 -3 -4 3 -16 14 -26 11 -10 20 -15 20 -11 0 4 9 2
19 -3 43 -23 101 23 101 80 0 56 -54 93 -110 75z"/>
<path d="M5108 6039 c-28 -11 -59 -70 -51 -100 10 -38 52 -63 98 -60 61 5 91
90 49 136 -13 14 -27 25 -33 25 -5 0 -15 2 -23 4 -7 3 -25 0 -40 -5z"/>
<path d="M2583 5868 c-34 -16 -55 -69 -42 -105 18 -53 90 -73 129 -38 26 23
39 74 28 101 -18 40 -75 61 -115 42z"/>
<path d="M5326 5849 c-31 -37 -33 -67 -6 -102 39 -50 117 -42 140 14 37 89
-72 162 -134 88z"/>
<path d="M2375 5681 c-37 -11 -55 -27 -64 -58 -17 -57 31 -114 89 -105 46 8
80 49 74 90 -1 6 -2 16 -3 22 -2 14 -40 47 -59 52 -10 3 -26 2 -37 -1z"/>
<path d="M5580 5663 c-49 -18 -70 -74 -46 -121 41 -80 156 -44 156 48 0 42
-69 87 -110 73z"/>
<path d="M2153 5434 c-13 -13 -24 -30 -24 -39 -1 -8 -2 -21 -3 -27 -1 -7 1
-21 6 -30 39 -80 158 -54 158 35 0 33 -29 76 -53 78 -7 1 -23 3 -36 4 -15 1
-34 -7 -48 -21z"/>
<path d="M5757 5429 c-11 -6 -25 -26 -33 -45 -13 -30 -12 -38 1 -65 33 -62
112 -63 148 -1 16 28 17 37 7 62 -21 51 -79 74 -123 49z"/>
<path d="M2025 5190 c-64 -25 -69 -121 -9 -149 39 -18 69 -13 98 15 43 43 33
101 -22 132 -25 14 -38 14 -67 2z"/>
<path d="M5924 5177 c-54 -28 -60 -91 -13 -131 40 -34 74 -33 110 3 36 37 37
72 3 110 -27 31 -64 37 -100 18z"/>
<path d="M1872 4925 c-37 -31 -41 -83 -10 -119 22 -24 40 -30 81 -27 27 2 67
50 67 81 0 28 -39 79 -62 81 -7 0 -21 2 -31 4 -10 2 -30 -7 -45 -20z"/>
<path d="M6026 4895 c-49 -46 -20 -127 51 -141 27 -5 37 -1 63 24 32 32 37 60
18 95 -28 53 -88 63 -132 22z"/>
<path d="M120 4655 c35 -35 68 -61 74 -58 6 3 8 2 3 -2 -10 -12 23 -46 37 -38
6 3 8 3 4 -1 -4 -5 95 -108 219 -230 l225 -222 -28 -30 c-16 -16 -65 -69 -109
-117 -44 -49 -93 -103 -110 -121 -30 -33 -119 -131 -158 -173 l-20 -23 381 0
382 0 -5 23 c-3 12 -7 38 -10 57 -2 19 -9 62 -15 95 -5 33 -12 78 -15 100 -2
22 -7 51 -10 65 -6 30 -12 69 -20 130 -3 25 -10 70 -15 100 -5 30 -12 73 -15
95 -3 22 -8 51 -11 65 -2 14 -6 36 -9 49 -2 13 -7 49 -11 80 -3 31 -8 59 -11
64 -2 4 151 7 340 7 l345 0 4 53 c1 28 2 62 0 75 l-3 22 -752 0 -751 0 64 -65z"/>
<path d="M6440 4645 l0 -75 355 0 c287 0 355 -3 355 -13 0 -7 -4 -38 -10 -68
-5 -30 -11 -71 -15 -91 -13 -94 -16 -114 -20 -128 -2 -8 -7 -35 -10 -60 -3
-25 -10 -70 -15 -100 -5 -30 -12 -75 -15 -100 -4 -25 -11 -67 -16 -94 -5 -27
-12 -74 -15 -105 -3 -31 -8 -59 -10 -62 -2 -4 -6 -29 -10 -58 l-6 -51 367 0
c344 0 367 1 354 17 -34 42 -62 68 -70 66 -5 -2 -8 1 -6 5 2 8 -60 79 -215
246 -31 34 -70 77 -87 96 l-31 35 230 226 c126 125 226 230 222 234 -4 5 -2 6
3 2 6 -3 46 30 89 74 l79 79 -751 0 -752 0 0 -75z"/>
<path d="M1937 3183 c-20 -5 -47 -52 -47 -81 0 -27 35 -69 65 -76 33 -8 83 18
95 50 26 68 -36 127 -113 107z"/>
<path d="M5955 3154 c-48 -52 -22 -128 46 -139 70 -11 119 63 83 125 -29 48
-92 54 -129 14z"/>
<path d="M2049 2900 c-40 -39 -39 -83 1 -120 26 -24 35 -27 64 -20 45 10 51
15 66 50 23 56 -7 102 -74 114 -22 4 -35 -1 -57 -24z"/>
<path d="M5833 2894 c-75 -37 -44 -155 41 -154 35 1 57 15 74 47 19 35 14 63
-17 94 -33 33 -52 35 -98 13z"/>
<path d="M2236 2659 c-20 -16 -26 -29 -26 -61 0 -42 21 -71 62 -84 28 -9 77
15 93 45 41 80 -57 156 -129 100z"/>
<path d="M5650 2658 c-11 -4 -27 -22 -34 -40 -34 -81 58 -152 127 -98 33 26
41 63 22 100 -24 46 -60 58 -115 38z"/>
<path d="M2451 2459 c-17 -10 -31 -20 -31 -21 -1 -2 -3 -20 -6 -40 -5 -33 -1
-42 25 -68 25 -25 36 -30 63 -25 49 8 82 49 74 94 -6 41 -21 58 -63 70 -24 7
-38 5 -62 -10z"/>
<path d="M5470 2462 c-39 -6 -71 -51 -66 -91 9 -74 95 -102 143 -46 52 60 2
150 -77 137z"/>
<path d="M2687 2279 c-24 -14 -45 -59 -41 -89 2 -14 16 -35 32 -47 83 -69 184
46 107 122 -25 26 -67 32 -98 14z"/>
<path d="M5235 2266 c-53 -23 -70 -58 -52 -109 23 -68 125 -69 153 -1 13 30
12 38 -1 64 -22 43 -62 62 -100 46z"/>
<path d="M2950 2120 c0 -5 -7 -10 -15 -10 -18 0 -35 -31 -35 -62 0 -31 24 -74
38 -70 7 1 12 -2 12 -8 0 -23 62 -9 92 20 25 26 29 36 24 63 -3 18 -17 42 -32
55 -25 22 -84 31 -84 12z"/>
<path d="M4955 2116 c-30 -22 -44 -75 -28 -107 36 -73 150 -53 159 28 8 71
-74 121 -131 79z"/>
<path d="M3218 1999 c-10 -5 -18 -17 -18 -24 0 -8 -4 -15 -10 -15 -19 0 -10
-59 13 -85 34 -39 82 -41 118 -5 36 36 38 77 4 114 -26 28 -74 35 -107 15z"/>
<path d="M4665 1984 c-27 -29 -33 -79 -12 -104 39 -47 101 -48 137 -3 64 82
-54 183 -125 107z"/>
<path d="M3492 1921 c-12 -10 -19 -21 -15 -25 3 -3 1 -6 -5 -6 -7 0 -10 -14
-8 -35 9 -114 166 -106 166 9 0 60 -92 98 -138 57z"/>
<path d="M4400 1933 c-56 -23 -72 -94 -30 -138 31 -32 79 -33 116 -2 66 57 -4
172 -86 140z"/>
<path d="M3792 1882 c-33 -26 -39 -80 -13 -114 43 -55 132 -40 145 25 9 46 8
53 -20 81 -31 31 -78 34 -112 8z"/>
<path d="M4100 1880 c0 -5 -5 -9 -12 -7 -15 3 -50 -62 -40 -77 3 -6 7 -17 9
-25 3 -23 28 -41 64 -47 80 -13 127 90 65 142 -27 24 -86 33 -86 14z"/>
</g>
</svg>
